<?xml version="1.0" encoding="UTF-8" standalone="no"?>
<svg xmlns="http://www.w3.org/2000/svg" width="128" height="128" viewBox="0 0 128 128">
  <circle cx="64" cy="64" r="60" fill="#3498db" opacity="0.2"/>
  
  <!-- 左足跡 -->
  <path d="M40,45 C45,40 50,42 52,46 C54,50 54,55 52,58 C50,61 45,62 41,60 C37,58 35,50 40,45 Z" fill="#3498db"/>
  <path d="M34,60 C36,57 41,57 43,60 C45,63 45,66 43,68 C41,70 36,70 34,68 C32,66 32,63 34,60 Z" fill="#3498db"/>
  <path d="M30,74 C32,71 37,71 39,74 C41,77 41,80 39,82 C37,84 32,84 30,82 C28,80 28,77 30,74 Z" fill="#3498db"/>
  <path d="M30,88 C32,85 37,85 39,88 C41,91 41,94 39,96 C37,98 32,98 30,96 C28,94 28,91 30,88 Z" fill="#3498db"/>
  <path d="M34,102 C36,99 41,99 43,102 C45,105 45,108 43,110 C41,112 36,112 34,110 C32,108 32,105 34,102 Z" fill="#3498db"/>
  
  <!-- 右足跡 -->
  <path d="M88,45 C83,40 78,42 76,46 C74,50 74,55 76,58 C78,61 83,62 87,60 C91,58 93,50 88,45 Z" fill="#3498db"/>
  <path d="M94,60 C92,57 87,57 85,60 C83,63 83,66 85,68 C87,70 92,70 94,68 C96,66 96,63 94,60 Z" fill="#3498db"/>
  <path d="M98,74 C96,71 91,71 89,74 C87,77 87,80 89,82 C91,84 96,84 98,82 C100,80 100,77 98,74 Z" fill="#3498db"/>
  <path d="M98,88 C96,85 91,85 89,88 C87,91 87,94 89,96 C91,98 96,98 98,96 C100,94 100,91 98,88 Z" fill="#3498db"/>
  <path d="M94,102 C92,99 87,99 85,102 C83,105 83,108 85,110 C87,112 92,112 94,110 C96,108 96,105 94,102 Z" fill="#3498db"/>
</svg>